<svg xmlns="http://www.w3.org/2000/svg" xmlns:xlink="http://www.w3.org/1999/xlink" width="500" zoomAndPan="magnify" viewBox="0 0 375 374.999991" height="500" preserveAspectRatio="xMidYMid meet" version="1.0"><defs><g/><clipPath id="7fc61b35a0"><path d="M 185 50 L 320.902344 50 L 320.902344 171 L 185 171 Z M 185 50 " clip-rule="nonzero"/></clipPath><clipPath id="d2e9f23e01"><path d="M 35.152344 37.5 L 184 37.5 L 184 184 L 35.152344 184 Z M 35.152344 37.5 " clip-rule="nonzero"/></clipPath></defs><g fill="#46b8b0" fill-opacity="0.4"><g transform="translate(12.087243, 240.67133)"><g><path d="M 14.265625 -47.4375 L 14.265625 -9.484375 L 30.59375 -9.484375 L 30.59375 0 L 3.453125 0 L 3.453125 -47.4375 Z M 14.265625 -47.4375 "/></g></g></g><g fill="#46b8b0" fill-opacity="0.4"><g transform="translate(44.569906, 240.67133)"><g><path d="M 33.296875 -13.34375 L 11.90625 -13.34375 C 11.90625 -11.269531 12.570312 -9.734375 13.90625 -8.734375 C 15.25 -7.742188 16.707031 -7.25 18.28125 -7.25 C 19.925781 -7.25 21.226562 -7.46875 22.1875 -7.90625 C 23.144531 -8.34375 24.238281 -9.210938 25.46875 -10.515625 L 32.828125 -6.84375 C 29.765625 -1.707031 24.664062 0.859375 17.53125 0.859375 C 13.09375 0.859375 9.28125 -0.660156 6.09375 -3.703125 C 2.914062 -6.753906 1.328125 -10.425781 1.328125 -14.71875 C 1.328125 -19.007812 2.914062 -22.6875 6.09375 -25.75 C 9.28125 -28.820312 13.09375 -30.359375 17.53125 -30.359375 C 22.207031 -30.359375 26.007812 -29.003906 28.9375 -26.296875 C 31.875 -23.597656 33.34375 -19.738281 33.34375 -14.71875 C 33.34375 -14.03125 33.328125 -13.570312 33.296875 -13.34375 Z M 12.1875 -18.96875 L 23.40625 -18.96875 C 23.175781 -20.507812 22.570312 -21.691406 21.59375 -22.515625 C 20.613281 -23.335938 19.359375 -23.75 17.828125 -23.75 C 16.140625 -23.75 14.796875 -23.304688 13.796875 -22.421875 C 12.804688 -21.546875 12.269531 -20.394531 12.1875 -18.96875 Z M 12.1875 -18.96875 "/></g></g></g><g fill="#46b8b0" fill-opacity="0.4"><g transform="translate(79.237252, 240.67133)"><g><path d="M 5.46875 -3.65625 C 2.707031 -6.664062 1.328125 -10.351562 1.328125 -14.71875 C 1.328125 -19.09375 2.707031 -22.789062 5.46875 -25.8125 C 8.226562 -28.84375 11.734375 -30.359375 15.984375 -30.359375 C 19.890625 -30.359375 23.109375 -29.132812 25.640625 -26.6875 L 25.640625 -29.5 L 35.828125 -29.5 L 35.828125 0 L 25.765625 0 L 25.765625 -3.328125 L 25.640625 -3.328125 C 23.109375 -0.535156 19.890625 0.859375 15.984375 0.859375 C 11.734375 0.859375 8.226562 -0.644531 5.46875 -3.65625 Z M 14.109375 -19.71875 C 12.785156 -18.414062 12.125 -16.75 12.125 -14.71875 C 12.125 -12.6875 12.753906 -11.023438 14.015625 -9.734375 C 15.285156 -8.453125 16.957031 -7.8125 19.03125 -7.8125 C 21.019531 -7.8125 22.65625 -8.460938 23.9375 -9.765625 C 25.226562 -11.078125 25.875 -12.726562 25.875 -14.71875 C 25.875 -16.75 25.210938 -18.414062 23.890625 -19.71875 C 22.566406 -21.019531 20.945312 -21.671875 19.03125 -21.671875 C 17.070312 -21.671875 15.429688 -21.019531 14.109375 -19.71875 Z M 14.109375 -19.71875 "/></g></g></g><g fill="#46b8b0" fill-opacity="0.4"><g transform="translate(118.503923, 240.67133)"><g><path d="M 3.453125 0 L 3.453125 -29.5 L 13.625 -29.5 L 13.625 -25.25 L 13.75 -25.25 C 13.820312 -25.394531 13.941406 -25.582031 14.109375 -25.8125 C 14.285156 -26.039062 14.660156 -26.441406 15.234375 -27.015625 C 15.804688 -27.597656 16.421875 -28.117188 17.078125 -28.578125 C 17.734375 -29.035156 18.578125 -29.445312 19.609375 -29.8125 C 20.640625 -30.175781 21.691406 -30.359375 22.765625 -30.359375 C 23.878906 -30.359375 24.972656 -30.203125 26.046875 -29.890625 C 27.117188 -29.585938 27.90625 -29.285156 28.40625 -28.984375 L 29.203125 -28.515625 L 24.953125 -19.890625 C 23.691406 -20.960938 21.929688 -21.5 19.671875 -21.5 C 18.441406 -21.5 17.382812 -21.226562 16.5 -20.6875 C 15.625 -20.15625 15.003906 -19.503906 14.640625 -18.734375 C 14.273438 -17.972656 14.015625 -17.320312 13.859375 -16.78125 C 13.703125 -16.25 13.625 -15.832031 13.625 -15.53125 L 13.625 0 Z M 3.453125 0 "/></g></g></g><g fill="#46b8b0" fill-opacity="0.4"><g transform="translate(147.134672, 240.67133)"><g><path d="M 3.453125 0 L 3.453125 -29.5 L 13.625 -29.5 L 13.625 -26.390625 L 13.75 -26.390625 C 16.382812 -29.035156 19.195312 -30.359375 22.1875 -30.359375 C 23.644531 -30.359375 25.09375 -30.164062 26.53125 -29.78125 C 27.96875 -29.394531 29.347656 -28.800781 30.671875 -28 C 31.992188 -27.195312 33.066406 -26.054688 33.890625 -24.578125 C 34.710938 -23.109375 35.125 -21.394531 35.125 -19.4375 L 35.125 0 L 24.953125 0 L 24.953125 -16.671875 C 24.953125 -18.203125 24.460938 -19.539062 23.484375 -20.6875 C 22.503906 -21.84375 21.234375 -22.421875 19.671875 -22.421875 C 18.128906 -22.421875 16.734375 -21.828125 15.484375 -20.640625 C 14.242188 -19.453125 13.625 -18.128906 13.625 -16.671875 L 13.625 0 Z M 3.453125 0 "/></g></g></g><g fill="#46b8b0" fill-opacity="0.4"><g transform="translate(185.136515, 240.67133)"><g><path d="M 4.421875 -45.9375 C 5.609375 -47.125 7.023438 -47.71875 8.671875 -47.71875 C 10.328125 -47.71875 11.75 -47.125 12.9375 -45.9375 C 14.125 -44.75 14.71875 -43.332031 14.71875 -41.6875 C 14.71875 -40.039062 14.125 -38.625 12.9375 -37.4375 C 11.75 -36.25 10.328125 -35.65625 8.671875 -35.65625 C 7.023438 -35.65625 5.609375 -36.25 4.421875 -37.4375 C 3.234375 -38.625 2.640625 -40.039062 2.640625 -41.6875 C 2.640625 -43.332031 3.234375 -44.75 4.421875 -45.9375 Z M 3.453125 -29.5 L 3.453125 0 L 13.625 0 L 13.625 -29.5 Z M 3.453125 -29.5 "/></g></g></g><g fill="#46b8b0" fill-opacity="0.4"><g transform="translate(202.498928, 240.67133)"><g><path d="M 3.453125 0 L 3.453125 -29.5 L 13.625 -29.5 L 13.625 -26.390625 L 13.75 -26.390625 C 16.382812 -29.035156 19.195312 -30.359375 22.1875 -30.359375 C 23.644531 -30.359375 25.09375 -30.164062 26.53125 -29.78125 C 27.96875 -29.394531 29.347656 -28.800781 30.671875 -28 C 31.992188 -27.195312 33.066406 -26.054688 33.890625 -24.578125 C 34.710938 -23.109375 35.125 -21.394531 35.125 -19.4375 L 35.125 0 L 24.953125 0 L 24.953125 -16.671875 C 24.953125 -18.203125 24.460938 -19.539062 23.484375 -20.6875 C 22.503906 -21.84375 21.234375 -22.421875 19.671875 -22.421875 C 18.128906 -22.421875 16.734375 -21.828125 15.484375 -20.640625 C 14.242188 -19.453125 13.625 -18.128906 13.625 -16.671875 L 13.625 0 Z M 3.453125 0 "/></g></g></g><g fill="#46b8b0" fill-opacity="0.4"><g transform="translate(240.500771, 240.67133)"><g><path d="M 2.125 7.25 L 10.46875 3.15625 C 12 5.6875 14.660156 6.953125 18.453125 6.953125 C 20.222656 6.953125 21.863281 6.382812 23.375 5.25 C 24.882812 4.125 25.640625 2.394531 25.640625 0.0625 L 25.640625 -2.125 C 23.835938 -0.132812 20.617188 0.859375 15.984375 0.859375 C 11.734375 0.859375 8.226562 -0.644531 5.46875 -3.65625 C 2.707031 -6.664062 1.328125 -10.351562 1.328125 -14.71875 C 1.328125 -19.09375 2.707031 -22.789062 5.46875 -25.8125 C 8.226562 -28.84375 11.734375 -30.359375 15.984375 -30.359375 C 19.773438 -30.359375 22.9375 -29.191406 25.46875 -26.859375 L 25.640625 -26.859375 L 25.640625 -29.5 L 35.828125 -29.5 L 35.828125 0.8125 C 35.828125 5.601562 34.234375 9.300781 31.046875 11.90625 C 27.867188 14.507812 23.671875 15.8125 18.453125 15.8125 C 10.023438 15.8125 4.582031 12.957031 2.125 7.25 Z M 14.109375 -19.71875 C 12.785156 -18.414062 12.125 -16.75 12.125 -14.71875 C 12.125 -12.6875 12.753906 -11.023438 14.015625 -9.734375 C 15.285156 -8.453125 16.957031 -7.8125 19.03125 -7.8125 C 21.019531 -7.8125 22.65625 -8.460938 23.9375 -9.765625 C 25.226562 -11.078125 25.875 -12.726562 25.875 -14.71875 C 25.875 -16.75 25.210938 -18.414062 23.890625 -19.71875 C 22.566406 -21.019531 20.945312 -21.671875 19.03125 -21.671875 C 17.070312 -21.671875 15.429688 -21.019531 14.109375 -19.71875 Z M 14.109375 -19.71875 "/></g></g></g><g fill="#4f46e5" fill-opacity="1"><g transform="translate(12.087243, 240.67133)"><g><path d="M 14.265625 -47.4375 L 14.265625 -9.484375 L 30.59375 -9.484375 L 30.59375 0 L 3.453125 0 L 3.453125 -47.4375 Z M 14.265625 -47.4375 "/></g></g></g><g fill="#4f46e5" fill-opacity="1"><g transform="translate(44.569906, 240.67133)"><g><path d="M 33.296875 -13.34375 L 11.90625 -13.34375 C 11.90625 -11.269531 12.570312 -9.734375 13.90625 -8.734375 C 15.25 -7.742188 16.707031 -7.25 18.28125 -7.25 C 19.925781 -7.25 21.226562 -7.46875 22.1875 -7.90625 C 23.144531 -8.34375 24.238281 -9.210938 25.46875 -10.515625 L 32.828125 -6.84375 C 29.765625 -1.707031 24.664062 0.859375 17.53125 0.859375 C 13.09375 0.859375 9.28125 -0.660156 6.09375 -3.703125 C 2.914062 -6.753906 1.328125 -10.425781 1.328125 -14.71875 C 1.328125 -19.007812 2.914062 -22.6875 6.09375 -25.75 C 9.28125 -28.820312 13.09375 -30.359375 17.53125 -30.359375 C 22.207031 -30.359375 26.007812 -29.003906 28.9375 -26.296875 C 31.875 -23.597656 33.34375 -19.738281 33.34375 -14.71875 C 33.34375 -14.03125 33.328125 -13.570312 33.296875 -13.34375 Z M 12.1875 -18.96875 L 23.40625 -18.96875 C 23.175781 -20.507812 22.570312 -21.691406 21.59375 -22.515625 C 20.613281 -23.335938 19.359375 -23.75 17.828125 -23.75 C 16.140625 -23.75 14.796875 -23.304688 13.796875 -22.421875 C 12.804688 -21.546875 12.269531 -20.394531 12.1875 -18.96875 Z M 12.1875 -18.96875 "/></g></g></g><g fill="#4f46e5" fill-opacity="1"><g transform="translate(79.237252, 240.67133)"><g><path d="M 5.46875 -3.65625 C 2.707031 -6.664062 1.328125 -10.351562 1.328125 -14.71875 C 1.328125 -19.09375 2.707031 -22.789062 5.46875 -25.8125 C 8.226562 -28.84375 11.734375 -30.359375 15.984375 -30.359375 C 19.890625 -30.359375 23.109375 -29.132812 25.640625 -26.6875 L 25.640625 -29.5 L 35.828125 -29.5 L 35.828125 0 L 25.765625 0 L 25.765625 -3.328125 L 25.640625 -3.328125 C 23.109375 -0.535156 19.890625 0.859375 15.984375 0.859375 C 11.734375 0.859375 8.226562 -0.644531 5.46875 -3.65625 Z M 14.109375 -19.71875 C 12.785156 -18.414062 12.125 -16.75 12.125 -14.71875 C 12.125 -12.6875 12.753906 -11.023438 14.015625 -9.734375 C 15.285156 -8.453125 16.957031 -7.8125 19.03125 -7.8125 C 21.019531 -7.8125 22.65625 -8.460938 23.9375 -9.765625 C 25.226562 -11.078125 25.875 -12.726562 25.875 -14.71875 C 25.875 -16.75 25.210938 -18.414062 23.890625 -19.71875 C 22.566406 -21.019531 20.945312 -21.671875 19.03125 -21.671875 C 17.070312 -21.671875 15.429688 -21.019531 14.109375 -19.71875 Z M 14.109375 -19.71875 "/></g></g></g><g fill="#4f46e5" fill-opacity="1"><g transform="translate(118.503923, 240.67133)"><g><path d="M 3.453125 0 L 3.453125 -29.5 L 13.625 -29.5 L 13.625 -25.25 L 13.75 -25.25 C 13.820312 -25.394531 13.941406 -25.582031 14.109375 -25.8125 C 14.285156 -26.039062 14.660156 -26.441406 15.234375 -27.015625 C 15.804688 -27.597656 16.421875 -28.117188 17.078125 -28.578125 C 17.734375 -29.035156 18.578125 -29.445312 19.609375 -29.8125 C 20.640625 -30.175781 21.691406 -30.359375 22.765625 -30.359375 C 23.878906 -30.359375 24.972656 -30.203125 26.046875 -29.890625 C 27.117188 -29.585938 27.90625 -29.285156 28.40625 -28.984375 L 29.203125 -28.515625 L 24.953125 -19.890625 C 23.691406 -20.960938 21.929688 -21.5 19.671875 -21.5 C 18.441406 -21.5 17.382812 -21.226562 16.5 -20.6875 C 15.625 -20.15625 15.003906 -19.503906 14.640625 -18.734375 C 14.273438 -17.972656 14.015625 -17.320312 13.859375 -16.78125 C 13.703125 -16.25 13.625 -15.832031 13.625 -15.53125 L 13.625 0 Z M 3.453125 0 "/></g></g></g><g fill="#4f46e5" fill-opacity="1"><g transform="translate(147.134672, 240.67133)"><g><path d="M 3.453125 0 L 3.453125 -29.5 L 13.625 -29.5 L 13.625 -26.390625 L 13.75 -26.390625 C 16.382812 -29.035156 19.195312 -30.359375 22.1875 -30.359375 C 23.644531 -30.359375 25.09375 -30.164062 26.53125 -29.78125 C 27.96875 -29.394531 29.347656 -28.800781 30.671875 -28 C 31.992188 -27.195312 33.066406 -26.054688 33.890625 -24.578125 C 34.710938 -23.109375 35.125 -21.394531 35.125 -19.4375 L 35.125 0 L 24.953125 0 L 24.953125 -16.671875 C 24.953125 -18.203125 24.460938 -19.539062 23.484375 -20.6875 C 22.503906 -21.84375 21.234375 -22.421875 19.671875 -22.421875 C 18.128906 -22.421875 16.734375 -21.828125 15.484375 -20.640625 C 14.242188 -19.453125 13.625 -18.128906 13.625 -16.671875 L 13.625 0 Z M 3.453125 0 "/></g></g></g><g fill="#4f46e5" fill-opacity="1"><g transform="translate(185.136515, 240.67133)"><g><path d="M 4.421875 -45.9375 C 5.609375 -47.125 7.023438 -47.71875 8.671875 -47.71875 C 10.328125 -47.71875 11.75 -47.125 12.9375 -45.9375 C 14.125 -44.75 14.71875 -43.332031 14.71875 -41.6875 C 14.71875 -40.039062 14.125 -38.625 12.9375 -37.4375 C 11.75 -36.25 10.328125 -35.65625 8.671875 -35.65625 C 7.023438 -35.65625 5.609375 -36.25 4.421875 -37.4375 C 3.234375 -38.625 2.640625 -40.039062 2.640625 -41.6875 C 2.640625 -43.332031 3.234375 -44.75 4.421875 -45.9375 Z M 3.453125 -29.5 L 3.453125 0 L 13.625 0 L 13.625 -29.5 Z M 3.453125 -29.5 "/></g></g></g><g fill="#4f46e5" fill-opacity="1"><g transform="translate(202.498928, 240.67133)"><g><path d="M 3.453125 0 L 3.453125 -29.5 L 13.625 -29.5 L 13.625 -26.390625 L 13.75 -26.390625 C 16.382812 -29.035156 19.195312 -30.359375 22.1875 -30.359375 C 23.644531 -30.359375 25.09375 -30.164062 26.53125 -29.78125 C 27.96875 -29.394531 29.347656 -28.800781 30.671875 -28 C 31.992188 -27.195312 33.066406 -26.054688 33.890625 -24.578125 C 34.710938 -23.109375 35.125 -21.394531 35.125 -19.4375 L 35.125 0 L 24.953125 0 L 24.953125 -16.671875 C 24.953125 -18.203125 24.460938 -19.539062 23.484375 -20.6875 C 22.503906 -21.84375 21.234375 -22.421875 19.671875 -22.421875 C 18.128906 -22.421875 16.734375 -21.828125 15.484375 -20.640625 C 14.242188 -19.453125 13.625 -18.128906 13.625 -16.671875 L 13.625 0 Z M 3.453125 0 "/></g></g></g><g fill="#4f46e5" fill-opacity="1"><g transform="translate(240.500771, 240.67133)"><g><path d="M 2.125 7.25 L 10.46875 3.15625 C 12 5.6875 14.660156 6.953125 18.453125 6.953125 C 20.222656 6.953125 21.863281 6.382812 23.375 5.25 C 24.882812 4.125 25.640625 2.394531 25.640625 0.0625 L 25.640625 -2.125 C 23.835938 -0.132812 20.617188 0.859375 15.984375 0.859375 C 11.734375 0.859375 8.226562 -0.644531 5.46875 -3.65625 C 2.707031 -6.664062 1.328125 -10.351562 1.328125 -14.71875 C 1.328125 -19.09375 2.707031 -22.789062 5.46875 -25.8125 C 8.226562 -28.84375 11.734375 -30.359375 15.984375 -30.359375 C 19.773438 -30.359375 22.9375 -29.191406 25.46875 -26.859375 L 25.640625 -26.859375 L 25.640625 -29.5 L 35.828125 -29.5 L 35.828125 0.8125 C 35.828125 5.601562 34.234375 9.300781 31.046875 11.90625 C 27.867188 14.507812 23.671875 15.8125 18.453125 15.8125 C 10.023438 15.8125 4.582031 12.957031 2.125 7.25 Z M 14.109375 -19.71875 C 12.785156 -18.414062 12.125 -16.75 12.125 -14.71875 C 12.125 -12.6875 12.753906 -11.023438 14.015625 -9.734375 C 15.285156 -8.453125 16.957031 -7.8125 19.03125 -7.8125 C 21.019531 -7.8125 22.65625 -8.460938 23.9375 -9.765625 C 25.226562 -11.078125 25.875 -12.726562 25.875 -14.71875 C 25.875 -16.75 25.210938 -18.414062 23.890625 -19.71875 C 22.566406 -21.019531 20.945312 -21.671875 19.03125 -21.671875 C 17.070312 -21.671875 15.429688 -21.019531 14.109375 -19.71875 Z M 14.109375 -19.71875 "/></g></g></g><g fill="#fdfdfd" fill-opacity="1"><g transform="translate(139.892237, 309.159526)"><g><path d="M 0.453125 -37.953125 L 0.453125 -47.4375 L 33.8125 -47.4375 L 33.8125 -37.953125 L 22.546875 -37.953125 L 22.546875 0 L 11.734375 0 L 11.734375 -37.953125 Z M 0.453125 -37.953125 "/></g></g></g><g fill="#fdfdfd" fill-opacity="1"><g transform="translate(174.157145, 309.159526)"><g><path d="M 3.453125 0 L 3.453125 -29.5 L 13.625 -29.5 L 13.625 -25.25 L 13.75 -25.25 C 13.820312 -25.394531 13.941406 -25.582031 14.109375 -25.8125 C 14.285156 -26.039062 14.660156 -26.441406 15.234375 -27.015625 C 15.804688 -27.597656 16.421875 -28.117188 17.078125 -28.578125 C 17.734375 -29.035156 18.578125 -29.445312 19.609375 -29.8125 C 20.640625 -30.175781 21.691406 -30.359375 22.765625 -30.359375 C 23.878906 -30.359375 24.972656 -30.203125 26.046875 -29.890625 C 27.117188 -29.585938 27.90625 -29.285156 28.40625 -28.984375 L 29.203125 -28.515625 L 24.953125 -19.890625 C 23.691406 -20.960938 21.929688 -21.5 19.671875 -21.5 C 18.441406 -21.5 17.382812 -21.226562 16.5 -20.6875 C 15.625 -20.15625 15.003906 -19.503906 14.640625 -18.734375 C 14.273438 -17.972656 14.015625 -17.320312 13.859375 -16.78125 C 13.703125 -16.25 13.625 -15.832031 13.625 -15.53125 L 13.625 0 Z M 3.453125 0 "/></g></g></g><g fill="#fdfdfd" fill-opacity="1"><g transform="translate(202.787895, 309.159526)"><g><path d="M 5.46875 -3.65625 C 2.707031 -6.664062 1.328125 -10.351562 1.328125 -14.71875 C 1.328125 -19.09375 2.707031 -22.789062 5.46875 -25.8125 C 8.226562 -28.84375 11.734375 -30.359375 15.984375 -30.359375 C 19.890625 -30.359375 23.109375 -29.132812 25.640625 -26.6875 L 25.640625 -29.5 L 35.828125 -29.5 L 35.828125 0 L 25.765625 0 L 25.765625 -3.328125 L 25.640625 -3.328125 C 23.109375 -0.535156 19.890625 0.859375 15.984375 0.859375 C 11.734375 0.859375 8.226562 -0.644531 5.46875 -3.65625 Z M 14.109375 -19.71875 C 12.785156 -18.414062 12.125 -16.75 12.125 -14.71875 C 12.125 -12.6875 12.753906 -11.023438 14.015625 -9.734375 C 15.285156 -8.453125 16.957031 -7.8125 19.03125 -7.8125 C 21.019531 -7.8125 22.65625 -8.460938 23.9375 -9.765625 C 25.226562 -11.078125 25.875 -12.726562 25.875 -14.71875 C 25.875 -16.75 25.210938 -18.414062 23.890625 -19.71875 C 22.566406 -21.019531 20.945312 -21.671875 19.03125 -21.671875 C 17.070312 -21.671875 15.429688 -21.019531 14.109375 -19.71875 Z M 14.109375 -19.71875 "/></g></g></g><g fill="#fdfdfd" fill-opacity="1"><g transform="translate(242.054565, 309.159526)"><g><path d="M 19.140625 -22.015625 C 17.222656 -22.015625 15.570312 -21.304688 14.1875 -19.890625 C 12.8125 -18.472656 12.125 -16.769531 12.125 -14.78125 C 12.125 -12.75 12.8125 -11.019531 14.1875 -9.59375 C 15.570312 -8.175781 17.222656 -7.46875 19.140625 -7.46875 C 20.066406 -7.46875 20.941406 -7.582031 21.765625 -7.8125 C 22.585938 -8.050781 23.191406 -8.285156 23.578125 -8.515625 L 24.09375 -8.859375 L 27.546875 -1.78125 C 27.273438 -1.59375 26.898438 -1.351562 26.421875 -1.0625 C 25.941406 -0.769531 24.847656 -0.378906 23.140625 0.109375 C 21.429688 0.609375 19.601562 0.859375 17.65625 0.859375 C 13.320312 0.859375 9.515625 -0.660156 6.234375 -3.703125 C 2.960938 -6.753906 1.328125 -10.40625 1.328125 -14.65625 C 1.328125 -18.957031 2.960938 -22.648438 6.234375 -25.734375 C 9.515625 -28.816406 13.320312 -30.359375 17.65625 -30.359375 C 19.601562 -30.359375 21.398438 -30.128906 23.046875 -29.671875 C 24.703125 -29.210938 25.875 -28.753906 26.5625 -28.296875 L 27.546875 -27.59375 L 24.09375 -20.640625 C 22.820312 -21.554688 21.171875 -22.015625 19.140625 -22.015625 Z M 19.140625 -22.015625 "/></g></g></g><g fill="#fdfdfd" fill-opacity="1"><g transform="translate(270.282877, 309.159526)"><g><path d="M 37.140625 -29.5 L 23.109375 -15.40625 L 38.53125 0 L 25.421875 0 L 13.625 -11.78125 L 13.625 0 L 3.453125 0 L 3.453125 -49.453125 L 13.625 -49.453125 L 13.625 -19.203125 L 23.921875 -29.5 Z M 37.140625 -29.5 "/></g></g></g><g fill="#fdfdfd" fill-opacity="1"><g transform="translate(307.422363, 309.159526)"><g><path d="M 33.296875 -13.34375 L 11.90625 -13.34375 C 11.90625 -11.269531 12.570312 -9.734375 13.90625 -8.734375 C 15.25 -7.742188 16.707031 -7.25 18.28125 -7.25 C 19.925781 -7.25 21.226562 -7.46875 22.1875 -7.90625 C 23.144531 -8.34375 24.238281 -9.210938 25.46875 -10.515625 L 32.828125 -6.84375 C 29.765625 -1.707031 24.664062 0.859375 17.53125 0.859375 C 13.09375 0.859375 9.28125 -0.660156 6.09375 -3.703125 C 2.914062 -6.753906 1.328125 -10.425781 1.328125 -14.71875 C 1.328125 -19.007812 2.914062 -22.6875 6.09375 -25.75 C 9.28125 -28.820312 13.09375 -30.359375 17.53125 -30.359375 C 22.207031 -30.359375 26.007812 -29.003906 28.9375 -26.296875 C 31.875 -23.597656 33.34375 -19.738281 33.34375 -14.71875 C 33.34375 -14.03125 33.328125 -13.570312 33.296875 -13.34375 Z M 12.1875 -18.96875 L 23.40625 -18.96875 C 23.175781 -20.507812 22.570312 -21.691406 21.59375 -22.515625 C 20.613281 -23.335938 19.359375 -23.75 17.828125 -23.75 C 16.140625 -23.75 14.796875 -23.304688 13.796875 -22.421875 C 12.804688 -21.546875 12.269531 -20.394531 12.1875 -18.96875 Z M 12.1875 -18.96875 "/></g></g></g><g fill="#fdfdfd" fill-opacity="1"><g transform="translate(342.089709, 309.159526)"><g><path d="M 3.453125 0 L 3.453125 -29.5 L 13.625 -29.5 L 13.625 -25.25 L 13.75 -25.25 C 13.820312 -25.394531 13.941406 -25.582031 14.109375 -25.8125 C 14.285156 -26.039062 14.660156 -26.441406 15.234375 -27.015625 C 15.804688 -27.597656 16.421875 -28.117188 17.078125 -28.578125 C 17.734375 -29.035156 18.578125 -29.445312 19.609375 -29.8125 C 20.640625 -30.175781 21.691406 -30.359375 22.765625 -30.359375 C 23.878906 -30.359375 24.972656 -30.203125 26.046875 -29.890625 C 27.117188 -29.585938 27.90625 -29.285156 28.40625 -28.984375 L 29.203125 -28.515625 L 24.953125 -19.890625 C 23.691406 -20.960938 21.929688 -21.5 19.671875 -21.5 C 18.441406 -21.5 17.382812 -21.226562 16.5 -20.6875 C 15.625 -20.15625 15.003906 -19.503906 14.640625 -18.734375 C 14.273438 -17.972656 14.015625 -17.320312 13.859375 -16.78125 C 13.703125 -16.25 13.625 -15.832031 13.625 -15.53125 L 13.625 0 Z M 3.453125 0 "/></g></g></g><path fill="#fdfdfd" d="M 186.066406 191.511719 L 174.292969 167.96875 L 186.066406 156.191406 L 197.835938 167.96875 L 186.066406 191.511719 " fill-opacity="1" fill-rule="nonzero"/><path fill="#fdfdfd" d="M 230.144531 113.242188 L 230.144531 101.984375 C 228.808594 101.625 227.402344 101.429688 225.953125 101.429688 C 217.113281 101.429688 209.941406 108.59375 209.941406 117.4375 C 209.941406 126.277344 217.113281 133.445312 225.953125 133.445312 C 234.792969 133.445312 241.960938 126.277344 241.960938 117.4375 C 241.960938 115.984375 241.765625 114.582031 241.402344 113.242188 L 230.144531 113.242188 " fill-opacity="1" fill-rule="nonzero"/><path fill="#fdfdfd" d="M 140.683594 113.242188 L 140.683594 101.984375 C 142.023438 101.625 143.425781 101.429688 144.878906 101.429688 C 153.71875 101.429688 160.886719 108.59375 160.886719 117.4375 C 160.886719 126.277344 153.71875 133.445312 144.878906 133.445312 C 136.035156 133.445312 128.867188 126.277344 128.867188 117.4375 C 128.867188 115.984375 129.0625 114.582031 129.425781 113.242188 L 140.683594 113.242188 " fill-opacity="1" fill-rule="nonzero"/><g clip-path="url(#7fc61b35a0)"><path fill="#fdfdfd" d="M 235.460938 158.230469 C 214.941406 158.230469 198.246094 141.535156 198.246094 121.015625 C 198.246094 100.492188 214.941406 83.800781 235.460938 83.800781 C 255.980469 83.800781 272.675781 100.492188 272.675781 121.015625 C 272.675781 141.535156 255.980469 158.230469 235.460938 158.230469 Z M 321.246094 50.699219 C 292.652344 69.546875 235.460938 71.449219 235.460938 71.449219 C 208.132812 71.449219 185.898438 93.683594 185.898438 121.015625 C 185.898438 148.34375 208.132812 170.578125 235.460938 170.578125 C 262.789062 170.578125 285.023438 148.34375 285.023438 121.015625 C 285.023438 107.890625 279.890625 95.953125 271.53125 87.078125 C 302.96875 76.910156 321.246094 50.699219 321.246094 50.699219 " fill-opacity="1" fill-rule="nonzero"/></g><g clip-path="url(#d2e9f23e01)"><path fill="#fdfdfd" d="M 120.929688 171.378906 C 93.160156 171.378906 70.566406 148.785156 70.566406 121.015625 C 70.566406 93.242188 93.160156 70.648438 120.929688 70.648438 C 148.699219 70.648438 171.296875 93.242188 171.296875 121.015625 C 171.296875 148.785156 148.699219 171.378906 120.929688 171.378906 Z M 120.929688 58.300781 C 120.929688 58.300781 63.742188 56.394531 35.144531 37.546875 C 35.144531 37.546875 51.96875 61.675781 81.097656 72.609375 C 67.136719 84.121094 58.214844 101.542969 58.214844 121.015625 C 58.214844 155.59375 86.351562 183.726562 120.929688 183.726562 C 155.511719 183.726562 183.644531 155.59375 183.644531 121.015625 C 183.644531 86.433594 155.511719 58.300781 120.929688 58.300781 " fill-opacity="1" fill-rule="nonzero"/></g></svg>